<?xml version="1.0" encoding="UTF-8"?>
<svg width="20px" height="20px" viewBox="0 0 20 20" version="1.1" xmlns="http://www.w3.org/2000/svg" xmlns:xlink="http://www.w3.org/1999/xlink">
    <title>44A9A8D4-F17C-4E5C-B6CB-A28E55ECAED8</title>
    <g id="Home" stroke="none" stroke-width="1" fill="none" fill-rule="evenodd" opacity="0.5">
        <g transform="translate(-196.000000, -337.000000)" fill="#000000" fill-rule="nonzero" id="Components-/-Navigation-/-Default">
            <g transform="translate(175.000000, 198.000000)">
                <g id="Components-/-Navigation-/-x-/-Element-Copy-2" transform="translate(9.500000, 139.000000)">
                    <g id="Icons-/-Navigation-/-Home" transform="translate(11.500000, 0.000000)">
                        <g id="briefcase" transform="translate(0.000000, 1.000000)">
                            <path d="M2.5,18 L17.5,18 C18.8807119,18 20,16.8487322 20,15.4285714 L20,6 C20,4.57983921 18.8807119,3.42857143 17.5,3.42857143 L14.25,3.42857143 C14.1449523,3.42854093 14.0563592,3.34807233 14.0433333,3.24085714 L13.9233333,2.25257143 C13.7671016,0.966636774 12.7049375,0.00122976693 11.445,0 L8.555,0 C7.29410979,0 6.23051705,0.965665097 6.07416667,2.25257143 L5.95416667,3.24085714 C5.94126594,3.34710764 5.85409368,3.42725529 5.75,3.42857143 L2.5,3.42857143 C1.11928813,3.42857143 0,4.57983921 0,6 L0,15.4285714 C0,16.8487322 1.11928813,18 2.5,18 Z M7.7275,2.46514286 C7.77964295,2.03595793 8.1344916,1.71397527 8.555,1.71428549 L11.445,1.71428549 C11.8655084,1.71397527 12.2203571,2.03595793 12.2725,2.46514286 L12.36,3.18857143 C12.3671497,3.24941158 12.3486321,3.31048904 12.309128,3.35636476 C12.2696239,3.40224048 12.212914,3.428524 12.1533333,3.42857143 L7.84666667,3.42857143 C7.787086,3.428524 7.73037611,3.40224048 7.69087202,3.35636476 C7.65136792,3.31048904 7.6328503,3.24941158 7.64,3.18857143 L7.7275,2.46514286 Z M4.375,8.14285714 C4.375,7.78781695 4.65482203,7.5 5,7.5 L15,7.5 C15.345178,7.5 15.625,7.78781695 15.625,8.14285714 L15.625,8.57142857 C15.625,8.92646877 15.345178,9.21428571 15,9.21428571 L5,9.21428571 C4.65482203,9.21428571 4.375,8.92646877 4.375,8.57142857 L4.375,8.14285714 Z M4.375,12.8571429 C4.375,12.5021027 4.65482203,12.2142857 5,12.2142857 L15,12.2142857 C15.345178,12.2142857 15.625,12.5021027 15.625,12.8571429 L15.625,13.2857143 C15.625,13.6407545 15.345178,13.9285714 15,13.9285714 L5,13.9285714 C4.65482203,13.9285714 4.375,13.6407545 4.375,13.2857143 L4.375,12.8571429 Z" id="Shape"></path>
                        </g>
                    </g>
                </g>
            </g>
        </g>
    </g>
</svg>