<?xml version="1.0" encoding="UTF-8"?>
<svg width="14px" height="12px" viewBox="0 0 14 12" version="1.1" xmlns="http://www.w3.org/2000/svg" xmlns:xlink="http://www.w3.org/1999/xlink">
    <title>E3A9D612-BC42-46A5-8BA6-36C437A1BAE5</title>
    <defs>
        <filter id="filter-1">
            <feColorMatrix in="SourceGraphic" type="matrix" values="0 0 0 0 0.117647 0 0 0 0 0.443137 0 0 0 0 0.733333 0 0 0 1.000000 0"></feColorMatrix>
        </filter>
    </defs>
    <g id="Home" stroke="none" stroke-width="1" fill="none" fill-rule="evenodd">
        <g transform="translate(-1045.000000, -735.000000)" id="Group-3">
            <g transform="translate(948.000000, 238.000000)" id="Icons-/-Interface-/-Arrow-/-Right-Copy-4" filter="url(#filter-1)">
                <g transform="translate(104.139710, 503.000000) rotate(-90.000000) translate(-104.139710, -503.000000) translate(98.139710, 496.139710)">
                    <path d="M1.84615385,9.56673326 C1.84615385,9.82163391 2.05279165,10.0282717 2.30769231,10.0282717 L3,10.0282717 C3.25490065,10.0282717 3.46153846,9.82163391 3.46153846,9.56673326 L3.46153846,3.45088711 C3.46153846,3.38716194 3.51319791,3.33550249 3.57692308,3.33550249 L9.69230769,3.33550249 C9.94720835,3.33550249 10.1538462,3.12886468 10.1538462,2.87396403 L10.1538462,2.18211787 C10.1538462,1.92721722 9.94720835,1.72057941 9.69230769,1.72057941 L2.76923077,1.72057941 C2.25942946,1.72057941 1.84615385,2.13385503 1.84615385,2.64365634 L1.84615385,9.56673326 Z" id="Arrow-down" fill="#1D1D1B" transform="translate(6.000000, 5.874426) rotate(-135.000000) translate(-6.000000, -5.874426) "></path>
                </g>
            </g>
        </g>
    </g>
</svg>