<?xml version="1.0" encoding="UTF-8"?>
<svg width="20px" height="20px" viewBox="0 0 20 20" version="1.1" xmlns="http://www.w3.org/2000/svg" xmlns:xlink="http://www.w3.org/1999/xlink">
    <title>2CCFBB14-14C0-4BA4-ABD7-7AB3866D11F1</title>
    <g id="Home" stroke="none" stroke-width="1" fill="none" fill-rule="evenodd" opacity="0.5">
        <g transform="translate(-196.000000, -400.000000)" fill="#000000" fill-rule="nonzero" id="Components-/-Navigation-/-Default">
            <g transform="translate(175.000000, 198.000000)">
                <g id="Components-/-Navigation-/-x-/-Element-Copy-3" transform="translate(15.500000, 202.000000)">
                    <g id="Bold" transform="translate(5.500000, 0.000000)">
                        <path d="M10,0 C4.4771525,0 0,4.4771525 0,10 C0,15.5228475 4.4771525,20 10,20 C15.5228475,20 20,15.5228475 20,10 C19.9940293,4.47962754 15.5203725,0.00597070634 10,0 Z M10,17.7083333 C5.74280505,17.7083333 2.29166667,14.2571949 2.29166667,10 C2.29166667,5.74280505 5.74280505,2.29166667 10,2.29166667 C14.2571949,2.29166667 17.7083333,5.74280505 17.7083333,10 C17.7037405,14.2552911 14.2552911,17.7037405 10,17.7083333 L10,17.7083333 Z" id="Shape"></path>
                        <path d="M10,3.54166667 C6.43316099,3.54166667 3.54166667,6.43316099 3.54166667,10 C3.54166667,13.566839 6.43316099,16.4583333 10,16.4583333 C13.566839,16.4583333 16.4583333,13.566839 16.4583333,10 C16.4542004,6.43487432 13.5651257,3.54579962 10,3.54166667 Z M13.75,10.8333333 C13.75,11.063452 13.563452,11.25 13.3333333,11.25 L11.6666667,11.25 C11.436548,11.25 11.25,11.436548 11.25,11.6666667 L11.25,13.3333333 C11.25,13.563452 11.063452,13.75 10.8333333,13.75 L9.16666667,13.75 C8.93654802,13.75 8.75,13.563452 8.75,13.3333333 L8.75,11.6666667 C8.75,11.436548 8.56345198,11.25 8.33333333,11.25 L6.66666667,11.25 C6.43654802,11.25 6.25,11.063452 6.25,10.8333333 L6.25,9.16666667 C6.25,8.93654802 6.43654802,8.75 6.66666667,8.75 L8.33333333,8.75 C8.56345198,8.75 8.75,8.56345198 8.75,8.33333333 L8.75,6.66666667 C8.75,6.43654802 8.93654802,6.25 9.16666667,6.25 L10.8333333,6.25 C11.063452,6.25 11.25,6.43654802 11.25,6.66666667 L11.25,8.33333333 C11.25,8.56345198 11.436548,8.75 11.6666667,8.75 L13.3333333,8.75 C13.563452,8.75 13.75,8.93654802 13.75,9.16666667 L13.75,10.8333333 Z" id="Shape"></path>
                    </g>
                </g>
            </g>
        </g>
    </g>
</svg>