<?xml version="1.0" encoding="UTF-8"?>
<svg width="20px" height="20px" viewBox="0 0 20 20" version="1.1" xmlns="http://www.w3.org/2000/svg" xmlns:xlink="http://www.w3.org/1999/xlink">
    <title>91C75497-B253-466D-A513-FBA447FA4522</title>
    <g id="Home" stroke="none" stroke-width="1" fill="none" fill-rule="evenodd">
        <g transform="translate(-197.000000, -211.000000)" fill="#BB1E1E" id="Components-/-Navigation-/-Default">
            <g transform="translate(175.000000, 198.000000)">
                <g id="Icons-/-Navigation-/-Home" transform="translate(22.000000, 13.000000)">
                    <path d="M19.7558333,9.41083333 L10.5891667,0.244166667 C10.2637501,-0.0811516153 9.73624988,-0.0811516153 9.41083333,0.244166667 L0.244166667,9.41083333 C0.00591007035,9.64916188 -0.0653515883,10.0075305 0.0636016849,10.3188788 C0.192554958,10.6302271 0.496336752,10.8332614 0.833333333,10.8333333 L1.875,10.8333333 C1.99005932,10.8333333 2.08333333,10.9266073 2.08333333,11.0416667 L2.08333333,19.1666667 C2.08333333,19.626904 2.45642938,20 2.91666667,20 L7.70833333,20 C7.82339266,20 7.91666667,19.906726 7.91666667,19.7916667 L7.91666667,15.8333333 C7.91666667,14.6827401 8.84940677,13.75 10,13.75 C11.1505932,13.75 12.0833333,14.6827401 12.0833333,15.8333333 L12.0833333,19.7916667 C12.0833333,19.906726 12.1766073,20 12.2916667,20 L17.0833333,20 C17.5435706,20 17.9166667,19.626904 17.9166667,19.1666667 L17.9166667,11.0416667 C17.9166667,10.9266073 18.0099407,10.8333333 18.125,10.8333333 L19.1666667,10.8333333 C19.5036632,10.8332614 19.807445,10.6302271 19.9363983,10.3188788 C20.0653516,10.0075305 19.9940899,9.64916188 19.7558333,9.41083333 Z" id="Home"></path>
                </g>
            </g>
        </g>
    </g>
</svg>