<?xml version="1.0" encoding="UTF-8"?>
<svg width="20px" height="20px" viewBox="0 0 20 20" version="1.1" xmlns="http://www.w3.org/2000/svg" xmlns:xlink="http://www.w3.org/1999/xlink">
    <title>B09FE975-2E5A-49BD-917F-D47596795CAE</title>
    <g id="Home" stroke="none" stroke-width="1" fill="none" fill-rule="evenodd" opacity="0.5">
        <g transform="translate(-196.000000, -274.000000)" fill="#1D1D1B" id="Components-/-Navigation-/-Default">
            <g transform="translate(175.000000, 198.000000)">
                <g id="Components-/-Navigation-/-x-/-Element-Copy" transform="translate(12.500000, 76.000000)">
                    <g id="Icons-/-Navigation-/-Home" transform="translate(8.500000, 0.000000)">
                        <path d="M14.1666667,0.416666667 C15.0871412,0.416666667 15.8333333,1.16285875 15.8333333,2.08333333 L15.8333333,2.08333333 L15.8333333,5.83333333 L17.5,5.83333333 C18.8807119,5.83333333 20,6.95262146 20,8.33333333 L20,8.33333333 L20,16.6666667 C20,18.2774972 18.6941639,19.5833333 17.0833333,19.5833333 L17.0833333,19.5833333 L2.91666667,19.5833333 C1.30583615,19.5833333 0,18.2774972 0,16.6666667 L0,16.6666667 L0,2.08333333 C0,1.16285875 0.746192084,0.416666667 1.66666667,0.416666667 L1.66666667,0.416666667 Z M13.75,2.08333333 L2.08333333,2.08333333 C1.85321469,2.08333333 1.66666667,2.26988135 1.66666667,2.5 L1.66666667,2.5 L1.66666667,16.6666667 C1.66666667,17.3570226 2.22631073,17.9166667 2.91666667,17.9166667 L2.91666667,17.9166667 L13.855,17.9158333 C13.9838519,17.9158017 14.10544,17.8561574 14.1843329,17.7542814 C14.2632257,17.6524053 14.2905463,17.5197603 14.2583333,17.395 C14.1971734,17.1570616 14.1663732,16.9123394 14.1666667,16.6666667 L14.1666667,16.6666667 L14.1666667,2.5 C14.1666667,2.26988135 13.9801186,2.08333333 13.75,2.08333333 L13.75,2.08333333 Z M17.5,7.5 L16.25,7.5 C16.0198814,7.5 15.8333333,7.68654802 15.8333333,7.91666667 L15.8333333,7.91666667 L15.8333333,16.6666667 C15.8333333,17.3570226 16.3929774,17.9166667 17.0833333,17.9166667 C17.7736893,17.9166667 18.3333333,17.3570226 18.3333333,16.6666667 L18.3333333,16.6666667 L18.3333333,8.33333333 C18.3333333,7.87309604 17.9602373,7.5 17.5,7.5 L17.5,7.5 Z M10.2083333,15.0391667 C10.5535113,15.0391667 10.8333283,15.3189887 10.8333283,15.6641667 L10.8333283,16.0808333 C10.8333283,16.4260113 10.5535113,16.7058339 10.2083333,16.7058339 L3.95833333,16.7058339 C3.61394022,16.7062944 3.33425263,16.4277255 3.33332833,16.0833333 L3.33332833,15.6666667 C3.33266856,15.5004736 3.39822299,15.3408594 3.51550536,15.2231079 C3.63278772,15.1053564 3.79213896,15.0391667 3.95833333,15.0391667 L10.2083333,15.0391667 Z M12.2925,11.7058333 C12.637678,11.7058333 12.9175,11.9856554 12.9175,12.3308333 L12.9175,12.7475 C12.9175,13.092678 12.637678,13.3725006 12.2925,13.3725006 L3.95916667,13.3725006 C3.61463753,13.3729621 3.33471114,13.0945267 3.33333111,12.75 L3.33333111,12.3333333 C3.33289054,12.1670634 3.39863083,12.0074518 3.51604537,11.8897245 C3.63345992,11.7719973 3.79289617,11.7058333 3.95916667,11.7058333 L12.2925,11.7058333 Z M12.2925,8.3725 C12.637678,8.3725 12.9175,8.65232203 12.9175,8.9975 L12.9175,9.41416667 C12.9175,9.75934464 12.637678,10.0391672 12.2925,10.0391672 L10.6258333,10.0391672 C10.2813042,10.0396288 10.0013778,9.76119335 9.99999778,9.41666667 L9.99999778,9 C9.9995572,8.8337301 10.0652975,8.67411844 10.182712,8.5563912 C10.3001266,8.43866397 10.4595628,8.3725 10.6258333,8.3725 L12.2925,8.3725 Z M7.29333333,3.75 C7.86862995,3.75 8.335,4.21637005 8.335,4.79166667 L8.335,8.75 C8.335,9.32529661 7.86862995,9.79166667 7.29333333,9.79166667 L4.585,9.79166667 C4.00970339,9.79166667 3.54333333,9.32529661 3.54333333,8.75 L3.54333333,4.79166667 C3.54333333,4.21637005 4.00970339,3.75 4.585,3.75 L7.29333333,3.75 Z M12.2925,5.03916667 C12.637678,5.03916667 12.9175,5.3189887 12.9175,5.66416667 L12.9175,6.08083333 C12.9175,6.4260113 12.637678,6.70583557 12.2925,6.70583557 L10.6258333,6.70583557 C10.4602939,6.70627595 10.3013587,6.64093984 10.183992,6.52419831 C10.0666254,6.40745679 10.0004414,6.24887281 9.99999778,6.08333333 L9.99999778,5.66666667 C9.9995572,5.50039676 10.0652975,5.3407851 10.182712,5.22305787 C10.3001266,5.10533064 10.4595628,5.03916667 10.6258333,5.03916667 L12.2925,5.03916667 Z" id="News"></path>
                    </g>
                </g>
            </g>
        </g>
    </g>
</svg>