<?xml version="1.0" encoding="UTF-8"?>
<svg width="20px" height="20px" viewBox="0 0 20 20" version="1.1" xmlns="http://www.w3.org/2000/svg" xmlns:xlink="http://www.w3.org/1999/xlink">
    <title>275F6FB0-5D63-459B-892C-E7A4C4C7C7C6</title>
    <g id="Home" stroke="none" stroke-width="1" fill="none" fill-rule="evenodd" opacity="0.5">
        <g transform="translate(-196.000000, -463.000000)" fill="#000000" fill-rule="nonzero" id="Components-/-Navigation-/-Default">
            <g transform="translate(175.000000, 198.000000)">
                <g id="Components-/-Navigation-/-x-/-Element-Copy-4" transform="translate(12.000000, 265.000000)">
                    <g id="Icons-/-Navigation-/-Home" transform="translate(9.000000, 0.000000)">
                        <g id="lab-bottle-experiment" transform="translate(1.000000, 0.000000)">
                            <path d="M9.15854014,6.21583333 C9.15895818,6.36545779 9.07987999,6.50382065 8.95136141,6.57833333 C7.28946388,7.53444623 6.2651206,9.31886264 6.26959366,11.25 C6.26959366,14.2415424 8.6716694,16.6666667 11.63478,16.6666667 C14.5978906,16.6666667 16.9999832,14.2415424 16.9999832,11.25 C17.0047815,9.31898919 15.9807299,7.53453174 14.319024,6.57833333 C14.1901875,6.50403397 14.110771,6.36563066 14.1110198,6.21583333 L14.1110198,5.41666667 C14.1110198,5.18654802 14.2957949,5 14.5237265,5 L15.3491397,5 C15.8050029,5 16.174553,4.62690396 16.174553,4.16666667 C16.174553,3.70642938 15.8050029,3.33333333 15.3491397,3.33333333 L14.5237265,3.33333333 C14.2957949,3.33333333 14.1110198,3.14678531 14.1110198,2.91666667 L14.1110198,1.25 C14.1110198,0.559644063 13.5566947,0 12.8728999,0 L10.3966601,0 C9.71286531,0 9.15854014,0.559644063 9.15854014,1.25 L9.15854014,2.91666667 C9.15854014,3.14678531 8.97376509,3.33333333 8.7458335,3.33333333 L7.43755346,3.33333333 C7.30256924,3.33454191 7.17553146,3.2690274 7.09738197,3.15790389 C7.01923248,3.04678039 6.99985038,2.9040953 7.04548215,2.77583333 C7.19637285,2.34136933 6.96983863,1.86567189 6.5395038,1.71333335 C6.10916898,1.5609948 5.63799259,1.78970267 5.48710187,2.22416667 L0.0922006752,17.7841667 C-0.0840265421,18.2939767 -0.00469993946,18.8583897 0.3050471,19.2985804 C0.614794138,19.738771 1.11657427,20 1.65140636,20 L12.7903586,20 C13.2462217,20 13.6157719,19.626904 13.6157719,19.1666667 C13.6157719,18.7064294 13.2462217,18.3333333 12.7903586,18.3333333 L2.2316719,18.3333333 C2.09794899,18.3333359 1.97251299,18.2679265 1.89511423,18.1578332 C1.81771546,18.0477398 1.79794827,17.9066098 1.84207683,17.7791667 L6.08057402,5.55833333 C6.19636196,5.22393822 6.50889161,5 6.85976416,5 L8.7392302,5 C8.96716178,5 9.15193684,5.18654802 9.15193684,5.41666667 L9.15854014,6.21583333 Z M9.57124678,12.2916667 C9.22934941,12.2916667 8.95218682,12.0118446 8.95218682,11.6666667 C8.95218682,11.3214887 9.22934941,11.0416667 9.57124678,11.0416667 C9.91314416,11.0416667 10.1903067,11.3214887 10.1903067,11.6666667 C10.1903067,12.0118446 9.91314416,12.2916667 9.57124678,12.2916667 L9.57124678,12.2916667 Z M11.8411333,14.375 C11.4992359,14.375 11.2220733,14.095178 11.2220733,13.75 C11.2220733,13.404822 11.4992359,13.125 11.8411333,13.125 C12.1830307,13.125 12.4601933,13.404822 12.4601933,13.75 C12.4601933,13.9164848 12.3944085,14.0760907 12.2774181,14.1934214 C12.1604277,14.3107522 12.0019051,14.3761099 11.8370062,14.375 L11.8411333,14.375 Z M13.6983132,12.8691667 C13.1284842,12.8691667 12.6665466,12.4027966 12.6665466,11.8275 C12.6665466,11.2522034 13.1284842,10.7858333 13.6983132,10.7858333 C14.2681421,10.7858333 14.7300798,11.2522034 14.7300798,11.8275 C14.7291708,12.4024161 14.2677652,12.868249 13.6983132,12.8691667 Z M10.8093667,2.08333333 C10.8093667,1.85321469 10.9941418,1.66666667 11.2220733,1.66666667 L12.0474866,1.66666667 C12.2754182,1.66666667 12.4601933,1.85321469 12.4601933,2.08333333 L12.4601933,2.91666667 C12.4601933,3.14678531 12.2754182,3.33333333 12.0474866,3.33333333 L11.2220733,3.33333333 C10.9941418,3.33333333 10.8093667,3.14678531 10.8093667,2.91666667 L10.8093667,2.08333333 Z M12.0474866,5 C12.2754182,5 12.4601933,5.18654802 12.4601933,5.41666667 L12.4601933,7 C12.459856,7.34314572 12.6678955,7.65141859 12.9843307,7.77666667 C13.8857624,8.12814758 14.6157562,8.82089607 15.0189744,9.7075 C15.048177,9.77194839 15.0429243,9.84696461 15.0050315,9.90662431 C14.9671387,9.96628401 14.9018039,10.0024033 14.8316056,10.0025 L8.4346527,10.0025 C8.3644821,10.0022482 8.29920693,9.96615364 8.26121088,9.90659372 C8.22321484,9.84703379 8.21766274,9.77210448 8.24645847,9.7075 C8.65013141,8.82073641 9.38031898,8.12778609 10.2819276,7.77583333 C10.5993803,7.65176748 10.8088335,7.34367346 10.8093667,7 L10.8093667,5.41666667 C10.8093667,5.18654802 10.9941418,5 11.2220733,5 L12.0474866,5 Z" id="Shape"></path>
                        </g>
                    </g>
                </g>
            </g>
        </g>
    </g>
</svg>