<?xml version="1.0" encoding="UTF-8"?>
<svg width="20px" height="20px" viewBox="0 0 20 20" version="1.1" xmlns="http://www.w3.org/2000/svg" xmlns:xlink="http://www.w3.org/1999/xlink">
    <title>CD7772F4-7685-4566-AB0E-3C6C513CFD05</title>
    <g id="Home" stroke="none" stroke-width="1" fill="none" fill-rule="evenodd">
        <g transform="translate(-372.000000, -110.000000)" fill="#A5A5A4" id="Components-/-Search-/-Header-/-Default">
            <g transform="translate(357.000000, 95.000000)">
                <g id="Icons-/-Interface-/-Search" transform="translate(15.000000, 15.000000)">
                    <path d="M19.4866667,18.0158333 L14.0458333,12.575 C16.5101294,9.33559544 16.0430695,4.74077224 12.977347,2.06348948 C9.91162454,-0.61379329 5.29575702,-0.457869676 2.41769367,2.42019367 C-0.460369676,5.29825702 -0.61629329,9.91412454 2.06098948,12.979847 C4.73827224,16.0455695 9.33309544,16.5126294 12.5725,14.0483333 L18.0133333,19.4891667 C18.4231123,19.8888822 19.0768877,19.8888822 19.4866667,19.4891667 C19.8931325,19.0821579 19.8931325,18.4228421 19.4866667,18.0158333 Z M2.29166667,7.91666667 C2.29166667,4.81006495 4.81006495,2.29166667 7.91666667,2.29166667 C11.0232684,2.29166667 13.5416667,4.81006495 13.5416667,7.91666667 C13.5416667,11.0232684 11.0232684,13.5416667 7.91666667,13.5416667 C4.81158786,13.5379931 2.29534023,11.0217455 2.29166667,7.91666667 Z" id="Search"></path>
                </g>
            </g>
        </g>
    </g>
</svg>