<?xml version="1.0" encoding="UTF-8"?>
<svg width="20px" height="20px" viewBox="0 0 20 20" version="1.1" xmlns="http://www.w3.org/2000/svg" xmlns:xlink="http://www.w3.org/1999/xlink">
    <title>E26CA217-B8E0-4CAB-AD3F-5BB7C9BA3A0F</title>
    <g id="Home" stroke="none" stroke-width="1" fill="none" fill-rule="evenodd" opacity="0.5">
        <g transform="translate(-196.000000, -526.000000)" fill="#000000" fill-rule="nonzero" id="Components-/-Navigation-/-Default">
            <g transform="translate(175.000000, 198.000000)">
                <g id="Components-/-Navigation-/-x-/-Element-Copy-7" transform="translate(3.000000, 328.000000)">
                    <g id="Bold" transform="translate(18.000000, 0.000000)">
                        <path d="M10,0 C4.4771525,0 0,4.4771525 0,10 C0,15.5228475 4.4771525,20 10,20 C15.5228475,20 20,15.5228475 20,10 C19.9940293,4.47962754 15.5203725,0.00597070634 10,0 Z M10.8441667,3.46916667 C10.8435879,3.30296398 10.941838,3.1523138 11.0941667,3.08583333 L13.4083333,2.0975 C13.5185347,2.05052853 13.6436216,2.05326101 13.7516667,2.105 C14.7132621,2.56583868 15.5829821,3.19779753 16.3183333,3.97 C16.4012563,4.05659692 16.4428568,4.17471802 16.4325,4.29416667 L16.2,6.92083333 C16.188512,7.06179865 16.1063007,7.18731206 15.9816667,7.25416667 L14.37,8.11833333 C14.2288309,8.1939458 14.0568185,8.18196 13.9275,8.0875 L11.0108333,5.96583333 C10.9031607,5.88715359 10.839654,5.76168914 10.8399986,5.62833333 L10.8441667,3.46916667 Z M3.69916667,3.94916667 C4.43294235,3.1833218 5.29944585,2.55680787 6.25666667,2.1 C6.36471174,2.04826101 6.48979863,2.04552853 6.6,2.0925 L8.92416667,3.08333333 C9.07649531,3.1498138 9.17474542,3.30046398 9.17416921,3.46666667 L9.17416921,5.62916667 C9.17299288,5.76120159 9.1093059,5.88486561 9.0025,5.9625 L6.16916667,8.0275 C6.0443335,8.11899373 5.8790722,8.13375493 5.74,8.06583333 L4.04916667,7.24 C3.91787174,7.17602388 3.82965916,7.04797336 3.81666667,6.9025 L3.58333333,4.27416667 C3.57317034,4.15418528 3.61540905,4.03567378 3.69916667,3.94916667 Z M6.47333333,13.7616667 L5.53416667,14.81 C5.43273282,14.9229571 5.27788958,14.9718045 5.13,14.9375 L2.57333333,14.3483333 C2.45664634,14.3216397 2.35707574,14.246051 2.3,14.1408333 C1.79931672,13.2133284 1.47174931,12.2023876 1.33333333,11.1575 C1.31781409,11.0408783 1.35232103,10.9231309 1.42833333,10.8333333 L3.0325,8.98666667 C3.16031643,8.83985774 3.3727479,8.80110803 3.54416667,8.89333333 L5.29416667,9.8325 C5.38910636,9.88314005 5.46077471,9.96854483 5.49416667,10.0708333 L6.55833333,13.3591667 C6.60282422,13.498942 6.57054044,13.6518152 6.47333333,13.7616667 Z M13.14,16.2616667 L11.8575,18.4091667 C11.7958943,18.5125685 11.6925836,18.5842782 11.5741667,18.6058333 C10.5435815,18.7933195 9.48774935,18.7947307 8.45666667,18.61 C8.33794239,18.5886682 8.23428907,18.5169316 8.1725,18.4133333 L6.885,16.265 C6.79109582,16.108185 6.81035691,15.9084779 6.9325,15.7725 L7.87083333,14.725 C7.95004109,14.6367611 8.06309208,14.5864488 8.18166667,14.586666 L11.8425,14.586666 C11.9610746,14.5864488 12.0741256,14.6367611 12.1533333,14.725 L13.0908333,15.7725 C13.2125762,15.9083257 13.2318231,16.1075473 13.1383333,16.2641667 L13.14,16.2616667 Z M17.7016667,14.1383333 C17.6445909,14.243551 17.5450203,14.3191397 17.4283333,14.3458333 L14.8716667,14.935 C14.7237771,14.9693045 14.5689339,14.9204571 14.4675,14.8075 L13.5283333,13.7591667 C13.4302005,13.6480824 13.3984682,13.4932286 13.445,13.3525 L14.5091667,10.0641667 C14.5425586,9.96187817 14.614227,9.87647339 14.7091667,9.82583333 L16.4591667,8.88666667 C16.630382,8.79489194 16.8422991,8.83361089 16.97,8.98 L18.5716667,10.8333333 C18.6500244,10.9236056 18.6858372,11.0431838 18.67,11.1616667 C18.530052,12.205339 18.2013653,13.2148365 17.7,14.1408333 L17.7016667,14.1383333 Z" id="Shape"></path>
                    </g>
                </g>
            </g>
        </g>
    </g>
</svg>