<?xml version="1.0" encoding="UTF-8"?>
<svg width="20px" height="18px" viewBox="0 0 20 18" version="1.1" xmlns="http://www.w3.org/2000/svg" xmlns:xlink="http://www.w3.org/1999/xlink">
    <title>A921235E-9E1A-405E-BD01-42FA4404759B</title>
    <g id="Home" stroke="none" stroke-width="1" fill="none" fill-rule="evenodd" opacity="0.5">
        <g transform="translate(-196.000000, -590.000000)" fill="#1D1D1B" id="Components-/-Navigation-/-Default">
            <g transform="translate(175.000000, 198.000000)">
                <g id="Components-/-Navigation-/-x-/-Element-Copy-6" transform="translate(15.500000, 352.000000)">
                    <g id="Icons-/-Navigation-/-Home" transform="translate(5.500000, 39.000000)">
                        <path d="M18.125,1.45833333 L1.875,1.45833333 C0.840037085,1.45971053 0.00137719799,2.29837042 0,3.33333333 L0,12.5 C0.00137719799,13.5349629 0.840037085,14.3736228 1.875,14.375 L8.54166667,14.375 C8.77178531,14.375 8.95833333,14.561548 8.95833333,14.7916667 L8.95833333,16.0416667 C8.95833333,16.2717853 8.77178531,16.4583333 8.54166667,16.4583333 L6.04166667,16.4583333 C5.46637005,16.4583333 5,16.9247034 5,17.5 C5,18.0752966 5.46637005,18.5416667 6.04166667,18.5416667 L13.9583333,18.5416667 C14.5336299,18.5416667 15,18.0752966 15,17.5 C15,16.9247034 14.5336299,16.4583333 13.9583333,16.4583333 L11.4583333,16.4583333 C11.2282147,16.4583333 11.0416667,16.2717853 11.0416667,16.0416667 L11.0416667,14.7916667 C11.0416667,14.561548 11.2282147,14.375 11.4583333,14.375 L18.125,14.375 C19.1599629,14.3736228 19.9986228,13.5349629 20,12.5 L20,3.33333333 C19.9986228,2.29837042 19.1599629,1.45971053 18.125,1.45833333 Z M17.9166667,11.875 C17.9166667,12.1051186 17.7301186,12.2916667 17.5,12.2916667 L2.5,12.2916667 C2.26988135,12.2916667 2.08333333,12.1051186 2.08333333,11.875 L2.08333333,3.95833333 C2.08333333,3.72821469 2.26988135,3.54166667 2.5,3.54166667 L17.5,3.54166667 C17.7301186,3.54166667 17.9166667,3.72821469 17.9166667,3.95833333 L17.9166667,11.875 Z" id="TV-Guide"></path>
                    </g>
                </g>
            </g>
        </g>
    </g>
</svg>